<svg xmlns="http://www.w3.org/2000/svg" id="Layer_1" data-name="Layer 1" viewBox="0 0 341.44 341.44">
  <defs/>
  <path fill="white" d="M53.07 148.67a.63.63 0 0 0 .52-.08.79.79 0 0 0 .3-.45l1.44-5.45 17.12 4.5a.71.71 0 0 0 .56 0 .63.63 0 0 0 .31-.41l.78-3c.12-.44-.06-.73-.55-.86l-17.1-4.49 1.45-5.49a.71.71 0 0 0 0-.52.68.68 0 0 0-.47-.33l-2.61-.69a.61.61 0 0 0-.5.06.59.59 0 0 0-.29.38l-4 15.35a.6.6 0 0 0 .5.81zM57.67 123.76l18.84 9.48a.74.74 0 0 0 .55.08.62.62 0 0 0 .39-.34l1.37-2.72a.64.64 0 0 0 .05-.55.81.81 0 0 0-.41-.41l-7.56-3.8 3.94-7.82 7.58 3.82a.78.78 0 0 0 .55.07.62.62 0 0 0 .39-.34l1.39-2.75a.65.65 0 0 0 0-.54.74.74 0 0 0-.42-.41l-18.74-9.44a.9.9 0 0 0-.56-.1.64.64 0 0 0-.43.38l-1.4 2.78a.56.56 0 0 0 0 .5.78.78 0 0 0 .37.37l7.61 3.83-3.93 7.82-7.56-3.8a.89.89 0 0 0-.56-.1.64.64 0 0 0-.43.37l-1.38 2.76a.56.56 0 0 0 0 .5.78.78 0 0 0 .35.36zM87.89 112.59a.72.72 0 0 0 .52.18.6.6 0 0 0 .45-.24l8-10a.57.57 0 0 0-.13-.9l-2.13-1.78a.65.65 0 0 0-.45-.15.53.53 0 0 0-.39.2L88 107.06l-4-3.21 4.92-6.15a.56.56 0 0 0-.12-.89l-2.17-1.75a.59.59 0 0 0-.45-.14.49.49 0 0 0-.39.19l-5 6.19-4-3.21 5.54-6.92a.57.57 0 0 0-.15-.91l-2.15-1.72a.65.65 0 0 0-.45-.15.52.52 0 0 0-.39.19l-7.93 9.91a.55.55 0 0 0-.13.48.67.67 0 0 0 .28.43zM101.1 83.14a14.69 14.69 0 0 0 4.45 4.5 9 9 0 0 0 5.1 1.4 10 10 0 0 0 5.22-1.82 12.6 12.6 0 0 0 3.13-2.91 12 12 0 0 0 1.68-2.94q.48-1.32.24-1.68l-4.31-6.43a.69.69 0 0 0-1.09-.22l-5.72 3.83a.69.69 0 0 0-.22 1.09l1.24 1.86a.77.77 0 0 0 .51.35.93.93 0 0 0 .67-.17l2.75-1.85 1.64 2.46c.09.13 0 .38-.15.77a6.52 6.52 0 0 1-.93 1.33 7.54 7.54 0 0 1-1.57 1.37 4.2 4.2 0 0 1-4.52.34 11.33 11.33 0 0 1-4.21-4 11 11 0 0 1-2-5.37 4.11 4.11 0 0 1 1.93-3.9 3.7 3.7 0 0 1 2.64-.68 3.33 3.33 0 0 1 2.2 1.31.59.59 0 0 0 .92.21l2.59-1.74c.35-.23.39-.53.14-.91a6.44 6.44 0 0 0-2.89-2.34 7.22 7.22 0 0 0-3.77-.54 9.1 9.1 0 0 0-4 1.55 9.55 9.55 0 0 0-3.65 4.2 9.12 9.12 0 0 0-.51 5.25 15.28 15.28 0 0 0 2.49 5.68zM126.48 79.58a.7.7 0 0 0 .36.42.59.59 0 0 0 .52 0l2.83-1.12a.62.62 0 0 0 .4-.37.74.74 0 0 0 0-.58l-2.4-6.07 2.81-1.11.39-.16 6.77 4.63a1.24 1.24 0 0 0 .46.23.81.81 0 0 0 .45-.06l3.66-1.39a.55.55 0 0 0 .29-.24.37.37 0 0 0 0-.34 1.66 1.66 0 0 0-.63-.63l-7.3-4.91a7.47 7.47 0 0 0 1.61-3.57 7.29 7.29 0 0 0-.46-3.87 7.51 7.51 0 0 0-2.39-3.29 6.75 6.75 0 0 0-3.65-1.39 9.51 9.51 0 0 0-4.4.73l-6.74 2.66c-.39.15-.49.46-.31.93zm.24-19.13a4.5 4.5 0 0 1 3.18-.25 3.26 3.26 0 0 1 2 2 3.49 3.49 0 0 1-.05 3.1 5.23 5.23 0 0 1-2.85 2.18l-2.22.88-2.71-6.87zM146.54 72.45a.72.72 0 0 0 .27.48.58.58 0 0 0 .5.11L160 70.78c.41-.07.57-.32.5-.76l-.5-2.74a.67.67 0 0 0-.23-.41.5.5 0 0 0-.42-.1l-9 1.61-.91-5.07 7.75-1.38a.58.58 0 0 0 .5-.76l-.5-2.74a.64.64 0 0 0-.24-.41.51.51 0 0 0-.41-.11l-7.82 1.4-.9-5.07 8.71-1.56c.41-.07.58-.33.49-.78l-.48-2.72a.62.62 0 0 0-.24-.4.5.5 0 0 0-.42-.11l-12.56 2.23a.57.57 0 0 0-.42.28.73.73 0 0 0-.08.51zM166 70.39l12.86.11c.41 0 .62-.21.63-.65v-2.78a.64.64 0 0 0-.16-.45.51.51 0 0 0-.39-.18l-9.18-.08v-5.15l7.87.07a.57.57 0 0 0 .63-.65v-2.79a.66.66 0 0 0-.16-.44.5.5 0 0 0-.4-.19l-7.93-.07v-5.15l8.86.08c.41 0 .62-.22.63-.68v-2.76a.63.63 0 0 0-.16-.44.56.56 0 0 0-.39-.19l-12.69-.11a.56.56 0 0 0-.46.19.75.75 0 0 0-.17.49l-.19 21.09a.76.76 0 0 0 .18.53.6.6 0 0 0 .62.2zM184.65 71.06l2.82.63c.45.1.73-.09.84-.58l2.57-11.49c.13-.58.26-1.39.41-2.43h.07L197 73.43a.7.7 0 0 0 .2.31.63.63 0 0 0 .32.21l2.95.66a.66.66 0 0 0 .54-.08.8.8 0 0 0 .29-.51l4.59-20.48a.86.86 0 0 0-.06-.55.63.63 0 0 0-.45-.34l-2.82-.65a.52.52 0 0 0-.49.1.79.79 0 0 0-.27.43l-2.65 11.88c-.2.89-.34 1.67-.42 2.32h-.07l-5.6-16.44a.74.74 0 0 0-.55-.56l-3-.67a.61.61 0 0 0-.5.09.75.75 0 0 0-.26.45l-4.61 20.58a.73.73 0 0 0 .06.55.62.62 0 0 0 .45.33zM207.22 77l2.78 1.3a.67.67 0 0 0 .55 0 .75.75 0 0 0 .4-.42l3.71-7.61 7.87 3.84-3.72 7.63a.73.73 0 0 0-.07.55.65.65 0 0 0 .34.39l2.78 1.35a.61.61 0 0 0 .54 0 .8.8 0 0 0 .41-.42L232 64.82a.87.87 0 0 0 .08-.56.63.63 0 0 0-.37-.42l-2.81-1.36a.54.54 0 0 0-.49 0 .78.78 0 0 0-.37.37l-3.73 7.67-7.87-3.83 3.7-7.61a.82.82 0 0 0 .09-.56.6.6 0 0 0-.38-.42L217 56.72a.52.52 0 0 0-.5 0 .66.66 0 0 0-.36.37L207 76a.73.73 0 0 0-.07.55.58.58 0 0 0 .29.45zM230.39 88.63a9 9 0 0 0 3.1 4.41 8.89 8.89 0 0 0 10.23 1.08 14.94 14.94 0 0 0 4.7-4 15.67 15.67 0 0 0 3-5.39 8.62 8.62 0 0 0-3.07-9.68A8.92 8.92 0 0 0 238.08 74a16.87 16.87 0 0 0-7.64 9.4 9.16 9.16 0 0 0-.05 5.23zm4.11-2.41a11 11 0 0 1 2.59-5.29 12.17 12.17 0 0 1 3.08-2.8 6.21 6.21 0 0 1 3.07-1 4.08 4.08 0 0 1 4.11 4.78 11.1 11.1 0 0 1-2.61 5.23 10.61 10.61 0 0 1-4.67 3.63 4.14 4.14 0 0 1-4.16-.64 4 4 0 0 1-1.41-3.91zM247.07 102.79a8.52 8.52 0 0 0 2.11 6.11 9.07 9.07 0 0 0 5.74 3.73 8 8 0 0 0 6.29-1.95l10.79-8.51a.64.64 0 0 0 .17-1l-1.91-2.43a.56.56 0 0 0-.45-.23.77.77 0 0 0-.47.17L258.75 107a5.06 5.06 0 0 1-3.57 1.28 4.08 4.08 0 0 1-3-1.67 3.75 3.75 0 0 1-.86-3.12 5.48 5.48 0 0 1 2.22-3.12l10.55-8.28a.85.85 0 0 0 .32-.47.59.59 0 0 0-.15-.54l-1.91-2.42a.54.54 0 0 0-.44-.24.69.69 0 0 0-.48.17l-10.91 8.57q-3.18 2.56-3.45 5.63zM269.07 120.56a29.79 29.79 0 0 1 .27 3 4.25 4.25 0 0 1-.34 1.9 2.54 2.54 0 0 1-1.3 1.28 2.38 2.38 0 0 1-2.19 0 3.9 3.9 0 0 1-1.78-1.9 4.22 4.22 0 0 1-.4-2.93 3.34 3.34 0 0 1 1.66-2.15.74.74 0 0 0 .39-.39.64.64 0 0 0-.05-.55l-1.23-2.5a.62.62 0 0 0-.94-.27 7 7 0 0 0-2.94 2.59 6.67 6.67 0 0 0-1 3.66 9.58 9.58 0 0 0 1.09 4.2A9.8 9.8 0 0 0 263 130a6.53 6.53 0 0 0 3.38 1.44 6.27 6.27 0 0 0 3.5-.65 5.2 5.2 0 0 0 2.79-3.08 12 12 0 0 0 .35-5.09c-.16-1.41-.25-2.49-.26-3.26a5.67 5.67 0 0 1 .28-2 2.23 2.23 0 0 1 1.15-1.27 2.27 2.27 0 0 1 1.89-.07 2.85 2.85 0 0 1 1.52 1.5 2.75 2.75 0 0 1 .25 2.25 3.25 3.25 0 0 1-1.53 1.67c-.41.26-.53.56-.36.91l1.38 2.8c.19.37.5.45.93.23a6.35 6.35 0 0 0 3.49-3.88 7.33 7.33 0 0 0-.69-5.55 9.24 9.24 0 0 0-2.38-3.08 6.43 6.43 0 0 0-3.17-1.46 5.68 5.68 0 0 0-3.36.57q-4.03 2.02-3.09 8.58zM290.84 144.45l-3.39-12.24a.6.6 0 0 0-.32-.39.8.8 0 0 0-.51 0l-20.33 5.63a.72.72 0 0 0-.45.31.6.6 0 0 0-.07.51l3.44 12.39a.56.56 0 0 0 .79.43l2.69-.75a.57.57 0 0 0 .38-.27.51.51 0 0 0 .07-.43l-2.45-8.85 5-1.37 2.1 7.58a.58.58 0 0 0 .8.43l2.69-.75a.6.6 0 0 0 .38-.27.51.51 0 0 0 .07-.43l-2.12-7.65 5-1.37 2.37 8.53c.11.4.39.54.83.42l2.65-.74a.66.66 0 0 0 .39-.28.53.53 0 0 0-.01-.44zM74.89 199.28l-1.1-4c-.07-.25-.28-.38-.63-.4L51 193.64a1.19 1.19 0 0 0-.54 0 .38.38 0 0 0-.3.52l1 3.45a.56.56 0 0 0 .56.45l3.9.09 2.12 7.72-3.32 2a.55.55 0 0 0-.26.68l1 3.58a.43.43 0 0 0 .18.24.46.46 0 0 0 .33 0 1.57 1.57 0 0 0 .47-.27l18.48-12.26c.22-.11.38-.33.27-.56zm-14 4.64l-1.55-5.66 10.14.25v.13zM79.3 236.28a12 12 0 0 0-.2-5.1c-.3-1.38-.5-2.45-.59-3.21a5.5 5.5 0 0 1 .07-2 2.13 2.13 0 0 1 1-1.37 2.18 2.18 0 0 1 1.86-.27 3.27 3.27 0 0 1 2.17 3.54 3.36 3.36 0 0 1-1.35 1.82c-.38.3-.47.61-.26.94l1.67 2.64c.22.34.53.39.94.14a6.42 6.42 0 0 0 3.07-4.24 7.34 7.34 0 0 0-1.28-5.44 9.21 9.21 0 0 0-2.69-2.82 6.45 6.45 0 0 0-3.31-1.11 5.63 5.63 0 0 0-3.28.92q-3.8 2.4-2.17 8.83a29.11 29.11 0 0 1 .59 3 4.35 4.35 0 0 1-.14 1.93 2.58 2.58 0 0 1-1.16 1.41 2.36 2.36 0 0 1-2.17.25 3.91 3.91 0 0 1-2-1.7 4.2 4.2 0 0 1-.71-2.87 3.39 3.39 0 0 1 1.42-2.32.73.73 0 0 0 .35-.43.68.68 0 0 0-.1-.54l-1.49-2.35a.62.62 0 0 0-1-.17A7 7 0 0 0 66 228.6a6.82 6.82 0 0 0-.61 3.73 9.6 9.6 0 0 0 1.53 4.07 10 10 0 0 0 3 3.18 6.57 6.57 0 0 0 3.51 1.07 6.29 6.29 0 0 0 3.42-1 5.21 5.21 0 0 0 2.45-3.37zM94.54 253a7.51 7.51 0 0 0 3.68-2 8.12 8.12 0 0 0 2.31-3.55 6.86 6.86 0 0 0 0-4 9.61 9.61 0 0 0-2.28-3.85l-4.91-5.24a.65.65 0 0 0-1 0L77 248.76a.73.73 0 0 0-.26.49.66.66 0 0 0 .18.48L79 252a.66.66 0 0 0 .49.24.81.81 0 0 0 .53-.25l4.47-4.2 2.16 2.21a10 10 0 0 0 3.81 2.61 7.34 7.34 0 0 0 4.08.39zm-5.41-6.25L87.49 245l5.45-5.11 1.91 2a4.86 4.86 0 0 1 1.43 2.91 3.25 3.25 0 0 1-1.17 2.6 3.61 3.61 0 0 1-2.93 1.14 5.23 5.23 0 0 1-3.05-1.83zM109.89 250.05a.6.6 0 0 0-.74.07L91 262.92a1.26 1.26 0 0 0-.42.35.38.38 0 0 0 .1.59l2.89 2.14a.57.57 0 0 0 .73 0l3.12-2.35 6.44 4.74-1.34 3.61a.56.56 0 0 0 .22.69l3 2.2a.34.34 0 0 0 .29.07.39.39 0 0 0 .28-.18 1.65 1.65 0 0 0 .2-.5l6.88-21.08c.1-.33.06-.57-.13-.71zm-4.72 14.77l-4.72-3.47 8.1-6.09.1.07zM132.87 264a9 9 0 0 0-3.39-2.62 9.33 9.33 0 0 0-5.4-.92 9.18 9.18 0 0 0-4.77 2.3 16.82 16.82 0 0 0-5.18 11.13 9.17 9.17 0 0 0 1.33 5.08 9.36 9.36 0 0 0 4.08 3.47 9.22 9.22 0 0 0 4.55.95 7.44 7.44 0 0 0 3.84-1.26 7.09 7.09 0 0 0 2.42-2.81.78.78 0 0 0 .05-.54.54.54 0 0 0-.28-.37l-2.85-1.33c-.36-.17-.66-.05-.9.37a3.67 3.67 0 0 1-2.24 1.8 4.05 4.05 0 0 1-3-.26 4 4 0 0 1-2.41-3.57 11.28 11.28 0 0 1 1.25-5.63 11.14 11.14 0 0 1 3.56-4.58 4.06 4.06 0 0 1 4.28-.4 3.6 3.6 0 0 1 1.92 1.9 3.38 3.38 0 0 1 0 2.54c-.16.44-.05.74.3.9l2.82 1.33a.6.6 0 0 0 .89-.35 6.47 6.47 0 0 0 .6-3.65 7 7 0 0 0-1.47-3.48zM153.26 269.4l-12.32-3.06a.55.55 0 0 0-.49.08.75.75 0 0 0-.28.44l-5.09 20.46a.78.78 0 0 0 0 .55.64.64 0 0 0 .42.31l12.47 3.1a.57.57 0 0 0 .77-.48l.67-2.71a.68.68 0 0 0-.05-.47.54.54 0 0 0-.34-.27l-8.91-2.21 1.24-5L149 282a.56.56 0 0 0 .76-.49l.67-2.7a.59.59 0 0 0-.05-.47.48.48 0 0 0-.34-.27l-7.7-1.92 1.24-5 8.6 2.14c.4.1.66-.07.77-.52l.66-2.67a.63.63 0 0 0-.05-.47.54.54 0 0 0-.3-.23zM183.21 270.41a.58.58 0 0 0-.45-.16l-15.86.66a.6.6 0 0 0-.63.72l.11 2.72a.59.59 0 0 0 .24.46.71.71 0 0 0 .51.16l5.64-.23.74 17.69a.79.79 0 0 0 .2.52.64.64 0 0 0 .49.17l3.08-.12c.45 0 .67-.28.65-.79l-.74-17.66 5.67-.24a.7.7 0 0 0 .49-.2.72.72 0 0 0 .17-.55l-.11-2.68a.66.66 0 0 0-.2-.47zM203.46 271a8.64 8.64 0 0 0-9.54-3.49 8.93 8.93 0 0 0-7.11 7.42 15 15 0 0 0 .28 6.17 15.52 15.52 0 0 0 2.48 5.63 9.2 9.2 0 0 0 4.14 3.25 9.06 9.06 0 0 0 5.39.24 8.93 8.93 0 0 0 7.1-7.43 14.92 14.92 0 0 0-.28-6.15 15.73 15.73 0 0 0-2.46-5.64zm-2.16 12.61a4.11 4.11 0 0 1-3.05 2.9 4 4 0 0 1-3.94-1.26 10.91 10.91 0 0 1-2.6-5.28 12.24 12.24 0 0 1-.34-4.15 6.13 6.13 0 0 1 1.08-3.05 3.92 3.92 0 0 1 2.31-1.55 4 4 0 0 1 4 1.22 11.12 11.12 0 0 1 2.55 5.26 10.7 10.7 0 0 1-.01 5.94zM237.08 261a.7.7 0 0 0-1.08-.26l-5.87 3.62a.69.69 0 0 0-.25 1.08l1.17 1.9a.75.75 0 0 0 .49.37.9.9 0 0 0 .65-.15l2.82-1.74 1.54 2.52c.08.13 0 .38-.18.76a6.2 6.2 0 0 1-1 1.3 7.57 7.57 0 0 1-1.62 1.3 4.2 4.2 0 0 1-4.54.18 11.44 11.44 0 0 1-4.05-4.17 10.93 10.93 0 0 1-1.85-5.44 4.1 4.1 0 0 1 2.07-3.82 3.7 3.7 0 0 1 2.66-.59 3.32 3.32 0 0 1 2.15 1.4.59.59 0 0 0 .92.24l2.66-1.64a.57.57 0 0 0 .23-.86 6.38 6.38 0 0 0-2.72-2.48 7.16 7.16 0 0 0-3.75-.68 9.15 9.15 0 0 0-4.05 1.4 9.55 9.55 0 0 0-3.8 4.06 9 9 0 0 0-.7 5.23 15.35 15.35 0 0 0 2.25 5.81 14.81 14.81 0 0 0 4.29 4.67 8.94 8.94 0 0 0 5 1.59 10.06 10.06 0 0 0 5.28-1.62 12.66 12.66 0 0 0 3.25-2.8 11.67 11.67 0 0 0 1.79-2.87c.35-.87.45-1.43.3-1.67zM261.23 251.89l-8.61-1.81a7.28 7.28 0 0 0-1.72-7.33 7.51 7.51 0 0 0-3.44-2.15 6.81 6.81 0 0 0-3.92.08 9.48 9.48 0 0 0-3.8 2.33l-5.25 5c-.3.29-.28.61.07 1l14.49 15.23a.71.71 0 0 0 .49.25.56.56 0 0 0 .48-.18l2.21-2.1a.67.67 0 0 0 .23-.5.79.79 0 0 0-.25-.52l-4.5-4.73 2.21-2.1.31-.3 8 1.76a1.14 1.14 0 0 0 .51 0 .8.8 0 0 0 .4-.22l2.86-2.71a.54.54 0 0 0 .18-.34.38.38 0 0 0-.12-.31 1.71 1.71 0 0 0-.83-.35zM248.65 249a5.3 5.3 0 0 1-1.8 3l-1.74 1.65-5.11-5.3 2.07-2A4.5 4.5 0 0 1 245 245a3.24 3.24 0 0 1 2.58 1.14 3.49 3.49 0 0 1 1.07 2.86zM268 225.37a15.67 15.67 0 0 0-5.61-2.5 8.64 8.64 0 0 0-9.4 3.85 9.18 9.18 0 0 0-1.76 5.19 9.32 9.32 0 0 0 1.5 5.07 15 15 0 0 0 4.36 4.37 15.21 15.21 0 0 0 5.63 2.49 9.2 9.2 0 0 0 5.25-.38 9.07 9.07 0 0 0 4.14-3.45 8.88 8.88 0 0 0 .24-10.28 15.15 15.15 0 0 0-4.35-4.36zm1 12.47a4 4 0 0 1-3.75 1.72 10.91 10.91 0 0 1-5.48-2.15 12.39 12.39 0 0 1-3.05-2.84 6.28 6.28 0 0 1-1.26-3 3.9 3.9 0 0 1 .67-2.7 4 4 0 0 1 3.76-1.78 11.08 11.08 0 0 1 5.43 2.17 10.66 10.66 0 0 1 4 4.36 4.11 4.11 0 0 1-.32 4.22zM288.81 202.64L271 190a2.57 2.57 0 0 0-.51-.33.39.39 0 0 0-.3 0 .4.4 0 0 0-.21.26l-1.19 3.37a.53.53 0 0 0 .2.69l14.11 8.89v.09l-16.88-1.06a.51.51 0 0 0-.58.35l-1.2 3.4a.46.46 0 0 0 .25.58l13.84 9.66v.09l-16.63-1.77a.52.52 0 0 0-.6.41l-1.3 3.47a.39.39 0 0 0 0 .3.47.47 0 0 0 .26.21 3.54 3.54 0 0 0 .56.06l21.86 1.33c.34 0 .55-.1.64-.33l1.2-3.4a.53.53 0 0 0-.28-.69L271 206.11v-.1l16.26 1.06a.53.53 0 0 0 .64-.33l1.2-3.41c.08-.24-.02-.47-.29-.69zM55.79 170.72a4.15 4.15 0 1 0 4.14-4.14 4.14 4.14 0 0 0-4.14 4.14zM286.25 170.72a4.15 4.15 0 1 0-4.15 4.14 4.14 4.14 0 0 0 4.15-4.14zM117.71 193.64v35.92h106V111.89h-106zm97.72-73.45V160l-38-39.78zm-40.56 9.36l35 36.59h-35zm0 44.9h40.56v19.19h-40.56zM126 120.19h38L126 160zm40.55 9.36v36.59h-35zM126 174.45h40.55v19.19H126zm0 27.5h89.41v19.3H126z" />
  <path fill="white" d="M170.72 22C88.7 22 22 88.7 22 170.72s66.7 148.74 148.72 148.74 148.74-66.72 148.74-148.74S252.74 22 170.72 22zm0 289.18c-77.43 0-140.43-63-140.43-140.44s63-140.43 140.43-140.43 140.44 63 140.44 140.43-63 140.42-140.44 140.42z" />
</svg>
